<svg version="1.1" id="Layer_1" xmlns="http://www.w3.org/2000/svg" xmlns:xlink="http://www.w3.org/1999/xlink" x="0px" y="0px"
	 width="100%" viewBox="0 0 592 592" enable-background="new 0 0 592 592" xml:space="preserve">
<path fill="#000000" opacity="1.000000" stroke="none" 
	d="
M593.000000,83.000000 
	C593.000000,252.954697 593.000000,422.909393 593.000000,592.932007 
	C395.764587,592.932007 198.529175,592.932007 1.000000,592.932007 
	C1.000000,428.641876 1.000000,264.283569 1.241463,99.598763 
	C5.403815,100.857780 7.119645,96.614052 10.245084,95.967056 
	C20.001204,93.947456 23.270493,86.042603 25.243412,77.858810 
	C27.586447,68.139755 30.181479,58.497856 32.624813,48.813026 
	C34.794975,40.210987 37.690720,32.825924 46.628624,29.044989 
	C50.332470,27.478176 52.794704,23.840862 51.531792,19.619249 
	C50.089016,14.796405 49.502586,9.871695 48.613995,4.982950 
	C48.283501,3.164681 47.524708,1.900446 46.000000,1.000000 
	C193.358231,1.000000 340.716461,1.000000 488.357330,1.237743 
	C486.833832,5.428179 490.770203,8.609707 490.098145,12.424490 
	C488.946930,18.958918 492.386597,23.290468 496.844940,27.465891 
	C500.641296,31.021362 504.974335,33.458149 509.859772,34.416412 
	C530.528137,38.470455 544.096252,53.825798 559.900696,65.566628 
	C565.126770,69.448997 568.281189,75.396324 572.139587,80.585312 
	C574.333252,83.535439 576.821777,84.960297 580.637268,84.310173 
	C584.714233,83.615501 588.875549,83.415771 593.000000,83.000000 
M498.402313,579.623596 
	C499.719238,579.775513 501.048370,579.858765 502.351105,580.090332 
	C512.224060,581.845703 522.139709,583.064270 531.919312,579.877747 
	C554.657593,572.468811 569.829529,552.194519 573.338745,529.261108 
	C575.156433,517.382141 574.254944,505.208984 565.612793,495.259430 
	C563.671814,493.024841 563.770325,490.671692 564.573120,487.845551 
	C567.442322,477.744446 568.150635,467.448517 564.344971,457.490509 
	C562.849731,453.577942 563.152893,451.191071 566.198975,448.426910 
	C571.754395,443.385712 575.034912,436.980347 576.803711,429.639832 
	C579.102905,420.097992 579.574402,410.477600 577.432251,401.007599 
	C574.741943,389.114685 569.792358,378.290436 558.885559,371.406677 
	C555.502686,369.271606 555.604126,366.913910 557.857849,363.972015 
	C563.792969,356.224548 566.122925,347.127228 565.449646,337.706146 
	C563.972473,317.035217 553.419922,301.031036 537.569763,288.434998 
	C525.120361,278.541626 510.874420,273.045685 494.716339,273.414703 
	C492.272339,273.470520 490.562531,272.782196 489.794373,270.250977 
	C486.076538,258.000427 481.343201,246.162567 475.874908,234.572815 
	C466.752777,215.238983 455.387604,197.353043 441.136810,181.482834 
	C429.552887,168.582596 416.377319,157.358856 401.315765,148.547592 
	C384.043274,138.442886 365.688812,131.071335 345.631439,129.575516 
	C323.354095,127.914169 301.391846,129.933868 280.791779,139.648346 
	C276.381042,141.728348 273.454834,141.527740 271.640717,136.387482 
	C270.487061,133.118683 268.418915,130.184891 267.064362,126.972870 
	C254.649796,97.534599 244.935562,67.219925 238.015366,36.031738 
	C236.405518,28.776482 234.432190,21.318958 235.225723,13.977275 
	C235.744400,9.178554 233.023376,7.264482 230.691650,4.786764 
	C228.341431,2.289406 225.324173,3.736853 222.771469,4.875285 
	C220.177933,6.031931 217.934479,7.849257 216.198669,10.135962 
	C210.370056,17.814318 204.889648,25.737968 200.407455,34.286476 
	C184.819214,64.016548 175.196182,95.560448 171.208252,128.916992 
	C168.867050,148.499588 168.082458,167.965591 172.574844,187.316513 
	C173.271179,190.316010 172.374496,191.325928 169.820084,192.488785 
	C163.160080,195.520584 156.356766,198.421722 150.166946,202.269867 
	C125.120377,217.841019 103.288239,237.081223 85.517372,260.729156 
	C75.278778,274.353760 66.294151,288.669373 62.227634,305.519836 
	C59.561611,316.567017 63.185066,321.206543 74.474152,321.639862 
	C86.974724,322.119690 99.443207,321.359589 111.723633,319.398590 
	C138.730743,315.085968 164.945557,307.768463 189.517365,295.526917 
	C196.395752,292.100098 202.588699,288.927734 209.391403,295.063507 
	C209.733246,295.371857 210.331543,295.378265 210.782547,295.585846 
	C217.559921,298.705261 224.971771,299.927094 232.341629,302.400879 
	C220.890198,338.953979 221.092957,374.844055 236.356964,410.436554 
	C233.595627,410.587891 231.408798,410.139160 229.140732,409.816071 
	C219.576141,408.453674 210.689972,409.136230 203.659073,417.311798 
	C198.703674,423.073853 194.797760,429.459076 191.649078,436.173004 
	C178.460297,464.295654 171.775146,493.857361 173.421463,525.059692 
	C173.631363,529.038208 174.464523,532.966736 175.962051,536.684143 
	C180.124176,547.015991 185.462860,548.948425 195.561356,544.169312 
	C210.156158,537.262268 222.732254,527.565918 234.277298,516.442566 
	C246.005478,505.142731 257.166534,493.345917 265.211151,479.162750 
	C265.745544,479.287476 265.945221,479.277222 266.064819,479.370117 
	C284.916168,494.005219 304.490509,507.339722 327.922607,513.717896 
	C329.594574,514.173035 330.380310,515.431152 330.909485,516.824341 
	C336.448059,531.406799 345.531891,543.330444 357.017029,553.852661 
	C373.801514,569.229797 392.817047,580.173462 415.019562,585.275391 
	C430.209808,588.766052 445.402344,589.257263 459.803040,582.149109 
	C464.924225,579.621216 470.061005,578.591309 475.596130,578.617920 
	C482.906708,578.653015 490.232544,578.340210 498.402313,579.623596 
z"/>
<path fill="#000000" opacity="1.000000" stroke="none" 
	d="
M333.355225,415.176086 
	C328.432617,389.316650 342.425995,363.446991 365.695953,356.703491 
	C372.521393,354.725525 376.477661,350.993378 379.964752,345.628418 
	C393.431061,324.910187 412.686401,310.630798 433.221832,297.754364 
	C440.421387,293.239990 447.896881,289.286224 455.597626,285.713623 
	C466.205200,280.792419 477.504517,278.319519 488.838654,276.071045 
	C490.103058,276.658539 490.215546,277.893463 490.620789,278.968170 
	C493.266235,285.984009 492.828247,286.250214 485.465820,286.486725 
	C474.992645,286.823212 465.424927,290.789307 456.050751,295.101776 
	C453.093048,296.462402 449.544586,296.903351 447.374268,300.320251 
	C448.472290,303.015900 449.886108,303.599823 452.975555,302.160217 
	C463.784851,297.123322 474.704102,292.291626 486.296570,289.248901 
	C494.251282,287.161011 494.255951,287.178802 499.145020,294.874756 
	C492.547485,296.733398 485.986755,298.204681 479.690002,300.424744 
	C459.026550,307.710022 439.555176,317.156097 423.551117,332.629028 
	C415.651520,340.266449 408.014587,348.084473 401.713654,357.180756 
	C399.555878,360.295868 399.383911,362.056702 402.366730,364.569092 
	C423.634552,382.483185 423.958038,418.948425 405.067871,439.103699 
	C383.537964,462.075470 347.684631,455.425690 335.788757,424.236938 
	C334.728485,421.457092 333.530670,418.670227 333.355225,415.176086 
z"/>
<path fill="#000000" opacity="1.000000" stroke="none" 
	d="
M404.480469,470.205414 
	C413.193237,472.322266 417.477631,487.368927 414.351868,493.836426 
	C411.949524,498.807068 407.322144,499.798431 403.055267,496.299164 
	C397.711945,491.916992 395.881104,486.088501 395.722290,479.581726 
	C395.583832,473.908020 398.619141,470.664337 404.480469,470.205414 
z"/>
<path fill="#000000" opacity="1.000000" stroke="none" 
	d="
M535.091431,310.098145 
	C538.617126,316.506714 540.801392,322.692993 536.783752,330.457367 
	C527.788452,317.857544 517.966492,306.879272 506.442688,297.302795 
	C517.860107,297.106628 527.477356,300.883575 535.091431,310.098145 
z"/>
</svg>