<?xml version="1.0" encoding="UTF-8"?>
<svg id="Layer_1" data-name="Layer 1" xmlns="http://www.w3.org/2000/svg" viewBox="0 0 800.27 630.13">
  <path d="M344.13,630.13c-57.07-14.12-121.03-13.57-172.06-45.94-14.6-17.44-9.05-42.53-14.99-63.6-10.45-16.53-31.1-26.34-45.47-39.96-3.42-2.65-7.66-4.76-11.59-6.87-5.08-6.22-9.23-12.96-17.13-15.74-11.37-7.81-19.78-19.75-33.75-24.15-19.84-17.45-32.05-22.16-34.11-51.91-3.17-29.87-5.22-59.9-9.38-89.67-6.72-14.88-6.83-33.74-3.55-49.81,16.48-25.82,32.84-51.72,49.55-77.4,5.45-8.38,9.74-17.99,19.95-22.3,21.65-12.26,42.65-25.91,64.11-38.59,69.62-43.24,53.1-35.22,134.6-41.36,14.98,1.4,31.32-5.08,44.75,1.81,15.6,6.5,64.67,47.9,75.68,41.72,22.14-16.99,43.71-34.74,65.44-52.22C495.88,17.65,553.98,19.39,602.13.12c5.84-.46,13.47.31,18.71,3.31,29.67,10.2,61.6,16.02,90.07,28.88,20.53,17.16,40.7,34.83,60.78,52.52,10.85,8.62,13.14,22.6,18.47,34.64,12.83,19.96,10.58,43.11,8.46,65.92-1.02,16.26,2.46,32.8-3.32,48.99-13.92,22.68-23.93,47.82-38.59,70.02-25.13,40.06-38.68,89.56-72.04,123.36-66.53,47.7-129.45,101.29-197.02,146.98-47.12,20.14-97.46,33.2-143.53,55.39Z" style="fill: #a93b73; stroke-width: 0px;"/>
  <path d="M100.13,474.08c13.05,11.02,25.31,22.53,39.39,32.18,17.85,9.65,16.69,29.1,18.43,46.68-10.8-13.51-22.57-25.22-33.08-39.25-5.95-4.83-5.12-13.66-13.62-16.09-3.72-4.63-5.54-11.6-12.73-12.94-12.48-12.23-25.36-26.2-37.05-39.46,13.01,9.77,24.79,20.5,38.66,28.88Z" style="fill: #a94499; stroke-width: 0px;"/>
  <path d="M1.31,302.13c-1-6.27-.71-13.09-.22-19.57,12.58,30.57,8.35,66.83,13.94,99.41,1.66,16.04,5.74,30.49,19.93,39.87-3.46,1.48-9.51-6.97-14.31-7.73,4.31,16.36,13.99,30.81,17.22,47.57-8.9-15.74-18.55-31.12-26.33-47.39-6.94-36.15-7.95-75.12-10.22-112.16Z" style="fill: #a23f7c; stroke-width: 0px;"/>
  <path d="M158.21,553.17c-2.31-17.77-.6-37.12-18.69-46.9-13.53-9.71-26.23-20.14-38.31-31.79,19.39,10.72,35.39,27.17,52.97,40.6,1.5,1.24,2.61,3.55,2.91,5.51,5.49,19.28,1.26,41.96,11.56,59.21-5.23.95-9.56-7.1-14.53-8.66-11.66-9.04-24.01-18.13-36.05-26.97-1.64-2.73-8.3-3.14-6.56-7.02,17.5,5.1,30.46,20.37,47.41,26.01-.34-2.86-.81-6.97-.71-9.98Z" style="fill: #a23f7c; stroke-width: 0px;"/>
  <path d="M100.02,473.77c-14.14-7.96-25.56-19.04-38.79-28.73-4.08-3.23-10.99-5.88-12.07-10.92,11.56,3.81,19.97,12.1,28.6,20.09,8.46,5.86,16.69,10.31,22.26,19.56Z" style="fill: #a23f7c; stroke-width: 0px;"/>
  <path d="M440.7,592.57c-7.8,3.14-15.96,6.27-24.54,9.39,7.78-3.14,15.98-6.27,24.54-9.39Z" style="fill: #552350; stroke-width: 0px;"/>
  <path d="M487.66,574.73c-7.13,3.07-14.61,6.11-22.49,9.2,7.12-3.04,14.62-6.14,22.49-9.2Z" style="fill: #552350; stroke-width: 0px;"/>
  <path d="M766.72,287.91c-2.1,4.18-4.49,8.56-7.18,13.06,2.09-4.2,4.49-8.54,7.18-13.06Z" style="fill: #531c46; stroke-width: 0px;"/>
  <path d="M773.79,274.07c-1.81,4.12-3.9,8.45-6.29,12.91,1.8-4.14,3.91-8.42,6.29-12.91Z" style="fill: #531c46; stroke-width: 0px;"/>
  <path d="M405.71,605.61c-4.09,1.77-8.52,3.58-13.37,5.4,4.07-1.78,8.54-3.57,13.37-5.4Z" style="fill: #552350; stroke-width: 0px;"/>
  <path d="M786.76,249.93c-1.09,2.43-2.47,5.06-4.09,7.88,1.1-2.44,2.45-5.05,4.09-7.88Z" style="fill: #531c46; stroke-width: 0px;"/>
  <path d="M456.68,586.57c-2.4,1.13-5.17,2.27-8.32,3.44,2.39-1.13,5.18-2.28,8.32-3.44Z" style="fill: #552350; stroke-width: 0px;"/>
  <path d="M778.77,264.79c-1.01,2.19-2.32,4.58-3.87,7.12,1.02-2.2,2.3-4.56,3.87-7.12Z" style="fill: #531c46; stroke-width: 0px;"/>
  <path d="M35.14,422.12c1.59,1.12,3.17,2.24,4.5,3.68-2.44,1.13-4.99-1.35-4.5-3.68Z" style="fill: #a23f7c; stroke-width: 0px;"/>
  <path d="M43.17,429.12c1.89,1.13,3.79,2.26,5.48,3.63-2.15-.12-6.19-.68-5.48-3.63Z" style="fill: #a23f7c; stroke-width: 0px;"/>
  <path d="M42.94,428.91c.23.63.22,1.07-.08,1.68-2.08-1.38-3.86-2.95-5.64-4.51,2.31-.49,4.18,1.1,5.72,2.83Z" style="fill: #a0428b; stroke-width: 0px;"/>
  <path d="M451.44,58.41c1.17-1.34,2.65-2.69,4.44-4.15-1.17,1.31-2.65,2.72-4.44,4.15Z" style="fill: #552350; stroke-width: 0px;"/>
  <path d="M166.4,580.38c2.48-1.31,4.26,1.66,5.59,3.55-1.75-.88-3.58-2.07-5.59-3.55Z" style="fill: #a03e7c; stroke-width: 0px;"/>
  <path d="M177.97,587.86c-1.76-.83-3.67-1.97-5.76-3.38,1.75.84,3.67,1.96,5.76,3.38Z" style="fill: #a03e7c; stroke-width: 0px;"/>
  <path d="M413.71,602.7c-1.48.75-3.3,1.51-5.5,2.28,1.47-.75,3.31-1.51,5.5-2.28Z" style="fill: #552350; stroke-width: 0px;"/>
  <path d="M45.13,432.16c1.71.47,5.28.56,3.74,3.42-1.44-1.02-2.59-2.22-3.74-3.42Z" style="fill: #a0428b; stroke-width: 0px;"/>
  <path d="M793.91,236.44c-.49,1.32-1.23,2.8-2.24,4.46.49-1.32,1.23-2.8,2.24-4.46Z" style="fill: #531c46; stroke-width: 0px;"/>
  <path d="M438.44,68.6c.88-1.04,2.06-2.14,3.55-3.31-.87,1.03-2.06,2.14-3.55,3.31Z" style="fill: #552350; stroke-width: 0px;"/>
  <path d="M461.74,584.71c-.56.42-1.41.83-2.57,1.26.55-.41,1.42-.84,2.57-1.26Z" style="fill: #552350; stroke-width: 0px;"/>
  <path d="M1.22,278.04c-.26-.63-.29-1.41-.28-2.58.2.55.35,1.49.28,2.58Z" style="fill: #a23f7c; stroke-width: 0px;"/>
  <path d="M780.82,261.13c-.25.73-.77,1.66-1.51,2.82.26-.72.76-1.67,1.51-2.82Z" style="fill: #531c46; stroke-width: 0px;"/>
  <path d="M1.05,273.08c-.26-.32-.44-.84-.61-1.64.23.3.46.87.61,1.64Z" style="fill: #a23f7c; stroke-width: 0px;"/>
  <path d="M444.77,590.93c-.32.32-.89.64-1.71,1.02.32-.3.89-.66,1.71-1.02Z" style="fill: #552350; stroke-width: 0px;"/>
  <path d="M789.97,243.51c-.13.34-.45.77-.92,1.33.15-.33.43-.79.92-1.33Z" style="fill: #531c46; stroke-width: 0px;"/>
  <path d="M492.81,572.49c-.31.4-.89.87-1.76,1.42.31-.39.89-.87,1.76-1.42Z" style="fill: #552350; stroke-width: 0px;"/>
  <path d="M44.87,432.05c19.87,15.35,36.01,35.26,53.65,52.62,7.19,1.35,9.01,8.32,12.73,12.94,5.8,2.14,8.31,6.62,10,12.12,7.03,8.25,14.65,17.12,20.9,26.04,7.89,3.21,9.62,12,15.8,17.18,1.1,3.72-1.01,8.6-5.08,5.47-9.9-1.85-18.32-10.77-27.62-14.55-8.75-5.83-25.18-20.59-34.48-20.25-3.69-1.47-6.46-5.62-9.75-7.39-3.58-3.07-8.2-5.5-11.93-8.04-3.09-2.76-7.15-5.08-9.91-8-5.06-14.17-11.73-26.78-16.5-40.63-6.08-16.99-36.55-62.51,2.2-27.51Z" style="fill: #a945a2; stroke-width: 0px;"/>
  <path d="M27.92,417.87c-3.16,1.32-3.06,3.71-1.89,6.23,12.12,24.41,21.9,49.06,32.75,74.17-17.68-25.38-27.53-55.27-38.12-84.15,2.36,1.16,4.72,2.32,7.27,3.75Z" style="fill: #a0428b; stroke-width: 0px;"/>
  <path d="M90.85,523.79c11.34.11,20.56,12,31.06,17.09-8.97-2.75-19.46-7.89-26.86-13.67-.93-1.67-3.07-2.08-4.2-3.41Z" style="fill: #a5438d; stroke-width: 0px;"/>
  <path d="M100.97,531.58c2.61,2.16,9.79,3.02,10.14,7.27-3.32-2.1-6.62-4.54-10.14-7.27Z" style="fill: #a03e7c; stroke-width: 0px;"/>
  <path d="M69.25,508.48c2.74,1.55,5.66,3.38,8.71,5.54-2.76-1.54-5.65-3.39-8.71-5.54Z" style="fill: #a0428b; stroke-width: 0px;"/>
  <path d="M118.26,544.45c2.41,1.54,5.01,3.35,7.72,5.49-2.43-1.52-4.98-3.37-7.72-5.49Z" style="fill: #a03e7c; stroke-width: 0px;"/>
  <path d="M154.3,571.43c1.75.86,3.67,2,5.72,3.46-1.76-.85-3.65-2.01-5.72-3.46Z" style="fill: #a03e7c; stroke-width: 0px;"/>
  <path d="M150.18,568.45c1.11.5,2.39,1.29,3.81,2.38-1.12-.49-2.38-1.3-3.81-2.38Z" style="fill: #a03e7c; stroke-width: 0px;"/>
  <path d="M95.22,527.48c1.1.54,2.36,1.37,3.73,2.53-1.11-.53-2.34-1.39-3.73-2.53Z" style="fill: #a03e7c; stroke-width: 0px;"/>
  <path d="M59.24,500.49c.83.48,1.74,1.26,2.75,2.33-.82-.48-1.75-1.25-2.75-2.33Z" style="fill: #a0428b; stroke-width: 0px;"/>
  <path d="M91.72,524.65c.92.45,2.01,1.19,3.23,2.24-.94-.44-1.99-1.2-3.23-2.24Z" style="fill: #a03e7c; stroke-width: 0px;"/>
  <path d="M138.86,559.53c.9.47,1.95,1.24,3.15,2.31-.91-.47-1.95-1.24-3.15-2.31Z" style="fill: #a03e7c; stroke-width: 0px;"/>
  <path d="M142.82,562.53c.9.48,1.97,1.26,3.17,2.35-.91-.47-1.96-1.26-3.17-2.35Z" style="fill: #a03e7c; stroke-width: 0px;"/>
  <path d="M62.82,503.67c.91.41,1.98,1.11,3.16,2.12-.92-.4-1.97-1.11-3.16-2.12Z" style="fill: #a0428b; stroke-width: 0px;"/>
  <path d="M39.33,465.47c.79.6,1.65,1.52,2.59,2.77-.79-.59-1.66-1.53-2.59-2.77Z" style="fill: #a23f7c; stroke-width: 0px;"/>
  <path d="M112.3,540.39c.7.23,1.59.72,2.65,1.45-.7-.23-1.58-.72-2.65-1.45Z" style="fill: #a03e7c; stroke-width: 0px;"/>
  <path d="M85.46,520.3c.71.25,1.55.77,2.54,1.57-.71-.25-1.56-.77-2.54-1.57Z" style="fill: #a03e7c; stroke-width: 0px;"/>
  <path d="M81.18,516.51c.77.24,1.7.76,2.79,1.59-.77-.23-1.7-.77-2.79-1.59Z" style="fill: #a0428b; stroke-width: 0px;"/>
  <path d="M66.9,506.59c.51.18,1.19.62,2.03,1.33-.52-.18-1.19-.62-2.03-1.33Z" style="fill: #a0428b; stroke-width: 0px;"/>
  <path d="M78.73,514.64c.56.16,1.29.61,2.17,1.34-.56-.16-1.28-.61-2.17-1.34Z" style="fill: #a0428b; stroke-width: 0px;"/>
  <path d="M115.83,542.48c.52.21,1.22.69,2.09,1.44-.52-.21-1.21-.69-2.09-1.44Z" style="fill: #a03e7c; stroke-width: 0px;"/>
  <path d="M.31,304.95c.01-.88.42-1.73.84-2.6.56,3.53.96,7.28,1.02,11.07-.84-2.81-1.36-5.64-1.87-8.47Z" style="fill: #86386a; stroke-width: 0px;"/>
  <path d="M35.15,423.75c-.57-.16-1.15-.63-1.87-1.36.88-.62,2.15-.18,1.87,1.36Z" style="fill: #a0428b; stroke-width: 0px;"/>
  <path d="M30.97,420.93c-.08-.03-.3-.24-.66-.63.08.03.3.24.66.63Z" style="fill: #a0428b; stroke-width: 0px;"/>
  <path d="M147.37,557.34c3.87-.98,8.36,5.06,10.75,0,.34,1.73.57,3.77.8,5.82-4.71-.56-7.95-2.6-11.55-5.81Z" style="fill: #a94499; stroke-width: 0px;"/>
  <path d="M126.32,544.43c3.01,1.54,6.21,3.35,9.61,5.44-3.01-1.54-6.21-3.36-9.61-5.44Z" style="fill: #a5438d; stroke-width: 0px;"/>
  <path d="M123.27,542.39c.43.24,1.01.73,1.74,1.46-.43-.24-1.01-.73-1.74-1.46Z" style="fill: #a5438d; stroke-width: 0px;"/>
  <path d="M57.97,442.87c-.68-.27-1.58-.77-2.64-1.53.7.26,1.56.78,2.64,1.53Z" style="fill: #a94499; stroke-width: 0px;"/>
</svg>